<svg width="142" height="20" viewBox="0 0 142 20" fill="none" xmlns="http://www.w3.org/2000/svg">
  <path d="M39.5368 0.162771L34.8144 14.5363L30.119 0.162771H20.6607V19.201H25.2752V0.354184L31.927 19.201H37.702L44.3537 0.35426V19.201H55.9575V15.4855H48.9683V11.309H55.1478V7.72921H48.9683V3.87812H55.9575V0.162771H39.5368Z" fill="#212337"/>
  <path d="M10.6859 9.68186V12.7945H14.253C13.2574 14.2555 11.5809 15.215 9.68014 15.215C6.62547 15.215 4.14909 12.7378 4.14909 9.68186C4.14909 6.62603 6.62547 4.14878 9.68014 4.14878C11.4361 4.14878 12.9988 4.96948 14.0118 6.24616L16.9569 3.29991C15.1831 1.27736 12.581 0 9.68014 0C4.33509 0 0.00195312 4.33478 0.00195312 9.68186C0.00195312 15.0289 4.33509 19.3636 9.68014 19.3636C12.2147 19.3636 14.5215 18.3885 16.2468 16.7932V19.3636H19.3582V9.68186H10.6859Z" fill="#212337"/>
  <path d="M87.3011 12.2582L89.6319 5.28834L91.9898 12.2582H87.3011ZM86.9759 0.162722L80.1078 19.1572V0.162722H74.6602L69.3753 13.3431L64.0361 0.162722H58.5615V19.2009H63.196V7.75631L67.4781 19.2009H71.2183L75.4733 7.78339V19.2009H84.9432L86.0815 15.8381H93.1822L94.3205 19.2009H99.226L92.3421 0.162722H86.9759Z" fill="#02A47B"/>
  <path d="M125.54 12.7286H120.521C120.142 13.5233 119.605 14.128 118.91 14.543C118.215 14.9585 117.425 15.166 116.541 15.166C115.115 15.166 113.959 14.6696 113.075 13.6765C112.191 12.6837 111.749 11.3567 111.749 9.69534C111.749 8.03446 112.191 6.70749 113.075 5.71427C113.959 4.72158 115.115 4.22477 116.541 4.22477C117.425 4.22477 118.215 4.43251 118.91 4.84767C119.605 5.26321 120.142 5.86793 120.521 6.66213H125.54V12.7286ZM137.372 0.216594V7.66429H130.17V0.216594H125.54V6.41176C124.979 4.47219 123.929 2.92999 122.389 1.78735C120.782 0.595707 118.851 0 116.595 0C114.754 0 113.106 0.41077 111.654 1.23208C110.542 1.86088 109.619 2.68038 108.882 3.68928V0.216594H94.1802V3.92677H99.2161V19.2283H103.846V3.92677H108.714C108.552 4.16525 108.399 4.41312 108.256 4.67167C107.444 6.14329 107.037 7.81772 107.037 9.69534C107.037 11.5733 107.444 13.2431 108.256 14.7055C109.068 16.1681 110.201 17.3102 111.654 18.1315C113.106 18.9532 114.754 19.3636 116.595 19.3636C118.851 19.3636 120.782 18.7726 122.389 17.5898C123.929 16.4561 124.979 14.9181 125.54 12.9789V19.2284H130.17V11.4016H137.372V19.2284H142.002V0.216594H137.372Z" fill="#02A47B"/>
</svg>
