<svg version="1.1" xmlns="http://www.w3.org/2000/svg" viewBox="20 18 295 88">
<defs>
  <mask id="pin-cutout">
    <rect x="20" y="18" width="295" height="88" fill="white"/>
    <path d="M62.5,30c-6.5,0-12.7,2.7-17.3,7.4C40.6,42.1,38,48.5,38,55.1c0,21.5,22.3,37.8,23.2,38.5
      c0.4,0.3,0.8,0.4,1.3,0.4c0.5,0,0.9-0.1,1.3-0.4C64.7,92.9,87,76.7,87,55.1c0-6.7-2.6-13.1-7.2-17.8C75.2,32.7,69,30,62.5,30z" fill="black"/>
    <circle cx="62.5" cy="55" r="9" fill="white"/>
  </mask>
</defs>
<!-- Icon: rounded square with pin cutout -->
<path d="M24,42c0-11,9-20,20-20h38.4c11,0,20,9,20,20v40.4c0,11-9,20-20,20H44c-11,0-20-9-20-20V42z" fill="white" mask="url(#pin-cutout)"/>
<!-- Dot -->
<path d="M303.9,97.6c0,2,1.7,3.6,3.6,3.6c2,0,3.6-1.7,3.6-3.6s-1.7-3.6-3.6-3.6C305.6,94,303.9,95.7,303.9,97.6z" fill="white"/>
<!-- "modular" text -->
<g fill="white" stroke="white" stroke-width="2" stroke-miterlimit="10">
  <path d="M161.2,31.4c1.4,0.8,2.4,1.9,3.2,3.4c0.8,1.5,1.2,3.3,1.2,5.4v13.7h-4.5v-13c0-2.1-0.5-3.7-1.5-4.8
    c-1-1.1-2.3-1.7-4-1.7c-1.7,0-3,0.6-4,1.7c-1,1.1-1.5,2.7-1.5,4.8v13h-4.5v-13c0-2.1-0.5-3.7-1.5-4.8c-1-1.1-2.3-1.7-4-1.7
    c-1.7,0-3,0.6-4,1.7c-1,1.1-1.5,2.7-1.5,4.8v13h-4.5V30.7h4.5v2.7c0.7-1,1.7-1.7,2.8-2.2c1.1-0.5,2.3-0.8,3.6-0.8
    c1.7,0,3.3,0.4,4.6,1.2c1.4,0.8,2.4,1.9,3.2,3.4c0.7-1.4,1.7-2.5,3.1-3.4c1.4-0.8,2.9-1.2,4.5-1.2
    C158.3,30.3,159.8,30.7,161.2,31.4z"/>
  <path d="M176.4,52.8c-1.7-1-3.1-2.4-4.1-4.2c-1-1.8-1.5-3.9-1.5-6.3c0-2.4,0.5-4.5,1.5-6.3c1-1.8,2.4-3.2,4.2-4.2
    c1.8-1,3.7-1.5,5.9-1.5c2.2,0,4.1,0.5,5.9,1.5c1.8,1,3.1,2.4,4.2,4.2c1,1.8,1.5,3.9,1.5,6.3c0,2.4-0.5,4.5-1.6,6.3
    s-2.5,3.2-4.3,4.2c-1.8,1-3.8,1.5-6,1.5C180.1,54.3,178.1,53.8,176.4,52.8z M185.6,49.2c1.1-0.6,1.9-1.5,2.6-2.7
    c0.7-1.2,1-2.6,1-4.3s-0.3-3.1-0.9-4.3c-0.6-1.2-1.5-2-2.5-2.6c-1-0.6-2.2-0.9-3.4-0.9c-1.2,0-2.3,0.3-3.4,0.9
    c-1,0.6-1.8,1.5-2.5,2.6c-0.6,1.2-0.9,2.6-0.9,4.3c0,2.5,0.6,4.4,1.9,5.8c1.2,1.4,2.8,2,4.7,2C183.4,50.1,184.6,49.8,185.6,49.2z"/>
  <path d="M200.4,35.8c0.9-1.8,2.2-3.2,3.9-4.2c1.6-1,3.5-1.5,5.5-1.5c1.5,0,2.9,0.3,4.4,1c1.4,0.7,2.6,1.5,3.4,2.6V22.5
    h4.7v31.2h-4.7v-3.5c-0.8,1.1-1.8,2.1-3.2,2.8c-1.4,0.7-2.9,1.1-4.7,1.1c-2,0-3.8-0.5-5.4-1.5c-1.6-1-2.9-2.5-3.9-4.3
    c-0.9-1.8-1.4-3.9-1.4-6.3S199.5,37.6,200.4,35.8z M216.6,37.9c-0.6-1.2-1.5-2.1-2.5-2.7c-1-0.6-2.2-0.9-3.4-0.9
    c-1.2,0-2.3,0.3-3.4,0.9c-1,0.6-1.9,1.5-2.5,2.7c-0.6,1.2-1,2.6-1,4.2c0,1.6,0.3,3,1,4.2c0.6,1.2,1.5,2.1,2.6,2.8
    c1.1,0.6,2.2,0.9,3.4,0.9c1.2,0,2.3-0.3,3.4-0.9c1-0.6,1.9-1.5,2.5-2.7c0.6-1.2,1-2.6,1-4.2S217.3,39.1,216.6,37.9z"/>
  <path d="M250.1,30.3v23.3h-4.7v-2.7c-0.7,1-1.7,1.7-2.9,2.3c-1.2,0.5-2.5,0.8-3.8,0.8c-1.8,0-3.4-0.4-4.8-1.1
    c-1.4-0.8-2.5-1.9-3.3-3.4c-0.8-1.5-1.2-3.3-1.2-5.4V30.3h4.7v13c0,2.1,0.5,3.7,1.5,4.8c1,1.1,2.4,1.7,4.2,1.7
    c1.8,0,3.2-0.6,4.2-1.7c1-1.1,1.5-2.7,1.5-4.8v-13H250.1z"/>
  <path d="M262.6,22.5v31.2h-4.7V22.5H262.6z"/>
  <path d="M269.6,35.8c0.9-1.8,2.2-3.2,3.9-4.2c1.6-1,3.4-1.5,5.4-1.5c1.8,0,3.3,0.4,4.7,1.1c1.3,0.7,2.4,1.6,3.2,2.7
    v-3.4h4.7v23.3h-4.7v-3.5c-0.8,1.1-1.9,2-3.3,2.7c-1.4,0.7-2.9,1.1-4.7,1.1c-2,0-3.7-0.5-5.4-1.5c-1.6-1-2.9-2.5-3.9-4.3
    c-0.9-1.8-1.4-3.9-1.4-6.3S268.6,37.6,269.6,35.8z M285.8,37.9c-0.6-1.2-1.5-2.1-2.5-2.7c-1-0.6-2.2-0.9-3.4-0.9
    c-1.2,0-2.3,0.3-3.4,0.9c-1,0.6-1.9,1.5-2.5,2.7c-0.6,1.2-1,2.6-1,4.2c0,1.6,0.3,3,1,4.2c0.6,1.2,1.5,2.1,2.6,2.8
    c1.1,0.6,2.2,0.9,3.4,0.9c1.2,0,2.3-0.3,3.4-0.9c1-0.6,1.9-1.5,2.5-2.7c0.6-1.2,1-2.6,1-4.2S286.4,39.1,285.8,37.9z"/>
  <path d="M306.3,31.1c1.1-0.7,2.5-1,4.1-1v5h-1.2c-1.8,0-3.2,0.5-4.2,1.4c-0.9,1-1.4,2.6-1.4,5v12.2h-4.7V30.5h4.7v3.4
    C304.3,32.7,305.2,31.7,306.3,31.1z"/>
</g>
<!-- "mapper." text -->
<g fill="white" stroke="white" stroke-miterlimit="10">
  <path d="M162,76.5c1.4,0.7,2.5,1.8,3.3,3.2c0.8,1.4,1.2,3.2,1.2,5.2V98h-4.6V85.6c0-2-0.5-3.5-1.5-4.6
    c-1-1.1-2.4-1.6-4.1-1.6c-1.7,0-3.1,0.5-4.1,1.6c-1,1.1-1.5,2.6-1.5,4.6V98h-4.6V85.6c0-2-0.5-3.5-1.5-4.6c-1-1.1-2.4-1.6-4.1-1.6
    c-1.7,0-3.1,0.5-4.1,1.6c-1,1.1-1.5,2.6-1.5,4.6V98h-4.6V75.7h4.6v2.5c0.8-0.9,1.7-1.6,2.9-2.1c1.2-0.5,2.4-0.8,3.7-0.8
    c1.8,0,3.4,0.4,4.8,1.1c1.4,0.8,2.5,1.8,3.2,3.3c0.7-1.3,1.7-2.4,3.2-3.2c1.4-0.8,3-1.2,4.6-1.2C159,75.4,160.6,75.7,162,76.5z"/>
  <path d="M172.4,80.8c0.9-1.7,2.2-3.1,3.8-4c1.6-1,3.4-1.4,5.3-1.4c1.8,0,3.3,0.3,4.6,1c1.3,0.7,2.4,1.5,3.1,2.6v-3.2
    h4.6V98h-4.6v-3.3c-0.8,1.1-1.8,1.9-3.2,2.6c-1.3,0.7-2.9,1.1-4.6,1.1c-1.9,0-3.7-0.5-5.3-1.5c-1.6-1-2.9-2.4-3.8-4.1
    c-0.9-1.8-1.4-3.8-1.4-6C171,84.5,171.4,82.6,172.4,80.8z M188.3,82.9c-0.6-1.1-1.5-2-2.5-2.6c-1-0.6-2.1-0.9-3.3-0.9
    c-1.2,0-2.3,0.3-3.3,0.9c-1,0.6-1.9,1.4-2.5,2.5c-0.6,1.1-1,2.4-1,4c0,1.5,0.3,2.9,1,4c0.6,1.2,1.5,2,2.5,2.6
    c1,0.6,2.1,0.9,3.3,0.9c1.2,0,2.3-0.3,3.3-0.9c1-0.6,1.9-1.5,2.5-2.6c0.6-1.1,1-2.5,1-4C189.2,85.3,188.9,84,188.3,82.9z"/>
  <path d="M208.7,76.4c1.3-0.7,2.9-1.1,4.6-1.1c1.9,0,3.7,0.5,5.3,1.4c1.6,1,2.9,2.3,3.8,4c0.9,1.7,1.4,3.7,1.4,5.9
    c0,2.2-0.5,4.2-1.4,6c-0.9,1.8-2.2,3.1-3.8,4.1c-1.6,1-3.4,1.5-5.3,1.5c-1.7,0-3.2-0.3-4.5-1c-1.3-0.7-2.4-1.5-3.2-2.6v13.8h-4.6
    V75.7h4.6V79C206.3,78,207.4,77.1,208.7,76.4z M218.1,82.8c-0.6-1.1-1.5-2-2.5-2.5c-1-0.6-2.2-0.9-3.3-0.9c-1.2,0-2.3,0.3-3.3,0.9
    c-1,0.6-1.9,1.5-2.5,2.6c-0.6,1.1-0.9,2.5-0.9,4c0,1.5,0.3,2.9,0.9,4c0.6,1.1,1.5,2,2.5,2.6c1,0.6,2.1,0.9,3.3,0.9
    c1.2,0,2.3-0.3,3.3-0.9c1-0.6,1.9-1.5,2.5-2.6c0.6-1.2,0.9-2.5,0.9-4C219.1,85.2,218.7,83.9,218.1,82.8z"/>
  <path d="M238.4,76.4c1.3-0.7,2.9-1.1,4.6-1.1c1.9,0,3.7,0.5,5.3,1.4c1.6,1,2.9,2.3,3.8,4c0.9,1.7,1.4,3.7,1.4,5.9
    c0,2.2-0.5,4.2-1.4,6c-0.9,1.8-2.2,3.1-3.8,4.1c-1.6,1-3.4,1.5-5.3,1.5c-1.7,0-3.2-0.3-4.5-1c-1.3-0.7-2.4-1.5-3.2-2.6v13.8h-4.6
    V75.7h4.6V79C236,78,237,77.1,238.4,76.4z M247.8,82.8c-0.6-1.1-1.5-2-2.5-2.5c-1-0.6-2.2-0.9-3.3-0.9c-1.2,0-2.3,0.3-3.3,0.9
    c-1,0.6-1.9,1.5-2.5,2.6c-0.6,1.1-0.9,2.5-0.9,4c0,1.5,0.3,2.9,0.9,4c0.6,1.1,1.5,2,2.5,2.6c1,0.6,2.1,0.9,3.3,0.9
    c1.2,0,2.3-0.3,3.3-0.9c1-0.6,1.9-1.5,2.5-2.6c0.6-1.2,0.9-2.5,0.9-4C248.7,85.2,248.4,83.9,247.8,82.8z"/>
  <path d="M280.1,88h-17c0.1,1.8,0.8,3.2,2,4.3c1.2,1.1,2.6,1.6,4.4,1.6c2.5,0,4.2-1,5.3-3.1h5c-0.7,2-1.9,3.7-3.7,5
    c-1.8,1.3-4,2-6.6,2c-2.1,0-4-0.5-5.7-1.4c-1.7-1-3-2.3-4-4c-1-1.7-1.4-3.8-1.4-6c0-2.3,0.5-4.3,1.4-6c0.9-1.7,2.2-3.1,3.9-4
    c1.7-0.9,3.6-1.4,5.8-1.4c2.1,0,4,0.5,5.6,1.4c1.6,0.9,2.9,2.2,3.8,3.9c0.9,1.7,1.4,3.6,1.4,5.7C280.3,86.6,280.2,87.4,280.1,88z
     M275.5,84.3c0-1.7-0.6-3.1-1.8-4.1c-1.2-1-2.7-1.5-4.4-1.5c-1.6,0-3,0.5-4.1,1.5s-1.8,2.4-2,4.1H275.5z"/>
  <path d="M293.2,76.3c1.1-0.6,2.4-1,4-1v4.8H296c-1.8,0-3.2,0.5-4.1,1.4c-0.9,0.9-1.4,2.5-1.4,4.8V98h-4.6V75.7h4.6V79
    C291.2,77.8,292.1,77,293.2,76.3z"/>
</g>
</svg>
