<svg width="100" height="21" viewBox="0 0 100 21" fill="none" xmlns="http://www.w3.org/2000/svg">
  <path d="M4.67285 -0.00585938L10.2832 7.86035L15.9229 -0.00585938H19.5557L12.1143 10.4092L19.7168 21H16.084L10.2832 12.9287L4.52637 21H0.893555L8.49609 10.4092L1.05469 -0.00585938H4.67285ZM23.3203 2.99707C23.3203 2.58691 23.3984 2.20117 23.5547 1.83984C23.7109 1.46875 23.9258 1.15137 24.1992 0.887695C24.4727 0.614258 24.79 0.399414 25.1514 0.243164C25.5225 0.0771484 25.9131 -0.00585938 26.3232 -0.00585938H37.7197C38.1299 -0.00585938 38.5156 0.0771484 38.877 0.243164C39.248 0.399414 39.5703 0.614258 39.8438 0.887695C40.1172 1.15137 40.332 1.46875 40.4883 1.83984C40.6445 2.20117 40.7227 2.58691 40.7227 2.99707V5.70703H37.7197V2.99707H26.3232V17.9971H37.7197V12.8994H32.0215V9.89648H40.7227V17.9971C40.7227 18.4072 40.6445 18.7979 40.4883 19.1689C40.332 19.5303 40.1172 19.8477 39.8438 20.1211C39.5703 20.3945 39.248 20.6094 38.877 20.7656C38.5156 20.9219 38.1299 21 37.7197 21H26.3232C25.9131 21 25.5225 20.9219 25.1514 20.7656C24.79 20.6094 24.4727 20.3945 24.1992 20.1211C23.9258 19.8477 23.7109 19.5303 23.5547 19.1689C23.3984 18.7979 23.3203 18.4072 23.3203 17.9971V2.99707ZM48.0908 -0.00585938L53.7012 7.86035L59.3408 -0.00585938H62.9736L55.5322 10.4092L63.1348 21H59.502L53.7012 12.9287L47.9443 21H44.3115L51.9141 10.4092L44.4727 -0.00585938H48.0908ZM66.4453 16.6201H70.8252V21H66.4453V16.6201ZM85.2393 -0.00585938L93.3398 21H90.3369L88.4766 16.166H78.999L77.1387 21H74.1357L82.2363 -0.00585938H85.2393ZM80.1416 13.1631H87.3193L83.7451 3.90527L80.1416 13.1631ZM99.9463 -0.00585938V21H96.9434V-0.00585938H99.9463Z" fill="white"/>
</svg>
