<svg xmlns="http://www.w3.org/2000/svg" viewBox="0 0 400 400">
  <defs>
    <linearGradient id="bgGrad" x1="0%" y1="0%" x2="100%" y2="100%">
      <stop offset="0%" style="stop-color:#1a1a1a"/>
      <stop offset="100%" style="stop-color:#0d0d0d"/>
    </linearGradient>
    <filter id="glow">
      <feGaussianBlur stdDeviation="2.5" result="coloredBlur"/>
      <feMerge>
        <feMergeNode in="coloredBlur"/>
        <feMergeNode in="SourceGraphic"/>
      </feMerge>
    </filter>
  </defs>

  <rect width="400" height="400" fill="url(#bgGrad)"/>

  <!-- Chat bubble / AI response -->
  <g filter="url(#glow)" stroke="#ffffff" stroke-width="2" fill="none" stroke-linecap="round" stroke-linejoin="round">
    <path d="M100 140 L100 260 Q100 280 120 280 L160 280 L180 310 L200 280 L280 280 Q300 280 300 260 L300 140 Q300 120 280 120 L120 120 Q100 120 100 140 Z"/>
  </g>

  <!-- Response lines inside bubble -->
  <g stroke="#ffffff" stroke-width="2" stroke-linecap="round" opacity="0.5">
    <line x1="130" y1="160" x2="270" y2="160"/>
    <line x1="130" y1="190" x2="250" y2="190"/>
    <line x1="130" y1="220" x2="220" y2="220"/>
  </g>

  <!-- Cursor / typing indicator -->
  <g filter="url(#glow)" fill="#ffffff" opacity="0.8">
    <rect x="130" y="245" width="12" height="2"/>
  </g>

  <!-- Subtle dots representing uncertainty -->
  <g fill="#ffffff" opacity="0.25">
    <circle cx="80" cy="200" r="2"/>
    <circle cx="320" cy="200" r="2"/>
    <circle cx="200" cy="80" r="2"/>
    <circle cx="200" cy="340" r="2"/>
  </g>
</svg>
