<svg xmlns="http://www.w3.org/2000/svg" viewBox="0 0 800 400">
  <defs>
    <linearGradient id="bgGrad" x1="0%" y1="0%" x2="100%" y2="100%">
      <stop offset="0%" style="stop-color:#141414"/>
      <stop offset="100%" style="stop-color:#0a0a0a"/>
    </linearGradient>
    <filter id="glow">
      <feGaussianBlur stdDeviation="2.5" result="coloredBlur"/>
      <feMerge>
        <feMergeNode in="coloredBlur"/>
        <feMergeNode in="SourceGraphic"/>
      </feMerge>
    </filter>
  </defs>

  <rect width="800" height="400" fill="url(#bgGrad)"/>

  <!-- Modular background grid - full coverage -->
  <g>
    <!-- Row 1 -->
    <rect x="20" y="20" width="48" height="48" rx="8" fill="white" opacity="0.04"/>
    <rect x="76" y="20" width="48" height="48" rx="8" fill="white" opacity="0.06"/>
    <rect x="132" y="20" width="48" height="48" rx="8" fill="white" opacity="0.03"/>
    <rect x="188" y="20" width="48" height="48" rx="8" fill="white" opacity="0.05"/>
    <rect x="244" y="20" width="48" height="48" rx="8" fill="white" opacity="0.07"/>
    <rect x="300" y="20" width="48" height="48" rx="8" fill="white" opacity="0.04"/>
    <rect x="356" y="20" width="48" height="48" rx="8" fill="white" opacity="0.06"/>
    <rect x="412" y="20" width="48" height="48" rx="8" fill="white" opacity="0.03"/>
    <rect x="468" y="20" width="48" height="48" rx="8" fill="white" opacity="0.05"/>
    <rect x="524" y="20" width="48" height="48" rx="8" fill="white" opacity="0.07"/>
    <rect x="580" y="20" width="48" height="48" rx="8" fill="white" opacity="0.04"/>
    <rect x="636" y="20" width="48" height="48" rx="8" fill="white" opacity="0.06"/>
    <rect x="692" y="20" width="48" height="48" rx="8" fill="white" opacity="0.05"/>
    <rect x="748" y="20" width="48" height="48" rx="8" fill="white" opacity="0.03"/>

    <!-- Row 2 -->
    <rect x="20" y="76" width="48" height="48" rx="8" fill="white" opacity="0.05"/>
    <rect x="76" y="76" width="48" height="48" rx="8" fill="white" opacity="0.03"/>
    <rect x="132" y="76" width="48" height="48" rx="8" fill="white" opacity="0.07"/>
    <rect x="188" y="76" width="48" height="48" rx="8" fill="white" opacity="0.04"/>
    <rect x="244" y="76" width="48" height="48" rx="8" fill="white" opacity="0.06"/>
    <rect x="300" y="76" width="48" height="48" rx="8" fill="white" opacity="0.05"/>
    <rect x="356" y="76" width="48" height="48" rx="8" fill="white" opacity="0.03"/>
    <rect x="412" y="76" width="48" height="48" rx="8" fill="white" opacity="0.07"/>
    <rect x="468" y="76" width="48" height="48" rx="8" fill="white" opacity="0.04"/>
    <rect x="524" y="76" width="48" height="48" rx="8" fill="white" opacity="0.06"/>
    <rect x="580" y="76" width="48" height="48" rx="8" fill="white" opacity="0.05"/>
    <rect x="636" y="76" width="48" height="48" rx="8" fill="white" opacity="0.03"/>
    <rect x="692" y="76" width="48" height="48" rx="8" fill="white" opacity="0.06"/>
    <rect x="748" y="76" width="48" height="48" rx="8" fill="white" opacity="0.04"/>

    <!-- Row 3 -->
    <rect x="20" y="132" width="48" height="48" rx="8" fill="white" opacity="0.06"/>
    <rect x="76" y="132" width="48" height="48" rx="8" fill="white" opacity="0.04"/>
    <rect x="132" y="132" width="48" height="48" rx="8" fill="white" opacity="0.05"/>
    <rect x="188" y="132" width="48" height="48" rx="8" fill="white" opacity="0.03"/>
    <rect x="244" y="132" width="48" height="48" rx="8" fill="white" opacity="0.07"/>
    <rect x="524" y="132" width="48" height="48" rx="8" fill="white" opacity="0.07"/>
    <rect x="580" y="132" width="48" height="48" rx="8" fill="white" opacity="0.03"/>
    <rect x="636" y="132" width="48" height="48" rx="8" fill="white" opacity="0.05"/>
    <rect x="692" y="132" width="48" height="48" rx="8" fill="white" opacity="0.04"/>
    <rect x="748" y="132" width="48" height="48" rx="8" fill="white" opacity="0.06"/>

    <!-- Row 4 -->
    <rect x="20" y="188" width="48" height="48" rx="8" fill="white" opacity="0.03"/>
    <rect x="76" y="188" width="48" height="48" rx="8" fill="white" opacity="0.05"/>
    <rect x="132" y="188" width="48" height="48" rx="8" fill="white" opacity="0.06"/>
    <rect x="188" y="188" width="48" height="48" rx="8" fill="white" opacity="0.04"/>
    <rect x="580" y="188" width="48" height="48" rx="8" fill="white" opacity="0.04"/>
    <rect x="636" y="188" width="48" height="48" rx="8" fill="white" opacity="0.06"/>
    <rect x="692" y="188" width="48" height="48" rx="8" fill="white" opacity="0.05"/>
    <rect x="748" y="188" width="48" height="48" rx="8" fill="white" opacity="0.03"/>

    <!-- Row 5 -->
    <rect x="20" y="244" width="48" height="48" rx="8" fill="white" opacity="0.07"/>
    <rect x="76" y="244" width="48" height="48" rx="8" fill="white" opacity="0.04"/>
    <rect x="132" y="244" width="48" height="48" rx="8" fill="white" opacity="0.03"/>
    <rect x="188" y="244" width="48" height="48" rx="8" fill="white" opacity="0.06"/>
    <rect x="580" y="244" width="48" height="48" rx="8" fill="white" opacity="0.06"/>
    <rect x="636" y="244" width="48" height="48" rx="8" fill="white" opacity="0.03"/>
    <rect x="692" y="244" width="48" height="48" rx="8" fill="white" opacity="0.04"/>
    <rect x="748" y="244" width="48" height="48" rx="8" fill="white" opacity="0.07"/>

    <!-- Row 6 -->
    <rect x="20" y="300" width="48" height="48" rx="8" fill="white" opacity="0.04"/>
    <rect x="76" y="300" width="48" height="48" rx="8" fill="white" opacity="0.06"/>
    <rect x="132" y="300" width="48" height="48" rx="8" fill="white" opacity="0.05"/>
    <rect x="188" y="300" width="48" height="48" rx="8" fill="white" opacity="0.03"/>
    <rect x="244" y="300" width="48" height="48" rx="8" fill="white" opacity="0.07"/>
    <rect x="300" y="300" width="48" height="48" rx="8" fill="white" opacity="0.04"/>
    <rect x="356" y="300" width="48" height="48" rx="8" fill="white" opacity="0.06"/>
    <rect x="412" y="300" width="48" height="48" rx="8" fill="white" opacity="0.05"/>
    <rect x="468" y="300" width="48" height="48" rx="8" fill="white" opacity="0.03"/>
    <rect x="524" y="300" width="48" height="48" rx="8" fill="white" opacity="0.07"/>
    <rect x="580" y="300" width="48" height="48" rx="8" fill="white" opacity="0.05"/>
    <rect x="636" y="300" width="48" height="48" rx="8" fill="white" opacity="0.06"/>
    <rect x="692" y="300" width="48" height="48" rx="8" fill="white" opacity="0.03"/>
    <rect x="748" y="300" width="48" height="48" rx="8" fill="white" opacity="0.04"/>
  </g>

  <!-- Smartphone -->
  <g filter="url(#glow)" stroke="#ffffff" stroke-width="2.5" fill="none" stroke-linecap="round" stroke-linejoin="round" transform="translate(400, 200)">
    <rect x="-45" y="-90" width="90" height="180" rx="10"/>
    <rect x="-35" y="-70" width="70" height="125" rx="3"/>
    <line x1="-18" y1="72" x2="18" y2="72"/>
  </g>

  <!-- App grid inside -->
  <g stroke="#ffffff" stroke-width="1.5" fill="none" opacity="0.4" transform="translate(400, 200)">
    <rect x="-28" y="-62" width="20" height="20" rx="4"/>
    <rect x="8" y="-62" width="20" height="20" rx="4"/>
    <rect x="-28" y="-34" width="20" height="20" rx="4"/>
    <rect x="8" y="-34" width="20" height="20" rx="4"/>
    <rect x="-28" y="-6" width="20" height="20" rx="4"/>
    <rect x="8" y="-6" width="20" height="20" rx="4"/>
  </g>

  <!-- Diagonal strike through -->
  <g filter="url(#glow)" stroke="#ffffff" stroke-width="2" fill="none" stroke-linecap="round" opacity="0.6" transform="translate(400, 200)">
    <line x1="-60" y1="-105" x2="60" y2="105"/>
  </g>
</svg>
