<svg xmlns="http://www.w3.org/2000/svg" viewBox="0 0 800 400">
  <defs>
    <linearGradient id="bgGrad" x1="0%" y1="0%" x2="100%" y2="100%">
      <stop offset="0%" style="stop-color:#141414"/>
      <stop offset="100%" style="stop-color:#0a0a0a"/>
    </linearGradient>
    <filter id="glow">
      <feGaussianBlur stdDeviation="2.5" result="coloredBlur"/>
      <feMerge>
        <feMergeNode in="coloredBlur"/>
        <feMergeNode in="SourceGraphic"/>
      </feMerge>
    </filter>
  </defs>

  <rect width="800" height="400" fill="url(#bgGrad)"/>

  <!-- Modular background grid - full coverage -->
  <g>
    <!-- Row 1 -->
    <rect x="20" y="20" width="48" height="48" rx="8" fill="white" opacity="0.04"/>
    <rect x="76" y="20" width="48" height="48" rx="8" fill="white" opacity="0.06"/>
    <rect x="132" y="20" width="48" height="48" rx="8" fill="white" opacity="0.03"/>
    <rect x="188" y="20" width="48" height="48" rx="8" fill="white" opacity="0.05"/>
    <rect x="244" y="20" width="48" height="48" rx="8" fill="white" opacity="0.07"/>
    <rect x="300" y="20" width="48" height="48" rx="8" fill="white" opacity="0.04"/>
    <rect x="356" y="20" width="48" height="48" rx="8" fill="white" opacity="0.06"/>
    <rect x="412" y="20" width="48" height="48" rx="8" fill="white" opacity="0.03"/>
    <rect x="468" y="20" width="48" height="48" rx="8" fill="white" opacity="0.05"/>
    <rect x="524" y="20" width="48" height="48" rx="8" fill="white" opacity="0.07"/>
    <rect x="580" y="20" width="48" height="48" rx="8" fill="white" opacity="0.04"/>
    <rect x="636" y="20" width="48" height="48" rx="8" fill="white" opacity="0.06"/>
    <rect x="692" y="20" width="48" height="48" rx="8" fill="white" opacity="0.05"/>
    <rect x="748" y="20" width="48" height="48" rx="8" fill="white" opacity="0.03"/>

    <!-- Row 2 -->
    <rect x="20" y="76" width="48" height="48" rx="8" fill="white" opacity="0.05"/>
    <rect x="76" y="76" width="48" height="48" rx="8" fill="white" opacity="0.03"/>
    <rect x="132" y="76" width="48" height="48" rx="8" fill="white" opacity="0.07"/>
    <rect x="188" y="76" width="48" height="48" rx="8" fill="white" opacity="0.04"/>
    <rect x="244" y="76" width="48" height="48" rx="8" fill="white" opacity="0.06"/>
    <rect x="300" y="76" width="48" height="48" rx="8" fill="white" opacity="0.05"/>
    <rect x="356" y="76" width="48" height="48" rx="8" fill="white" opacity="0.03"/>
    <rect x="412" y="76" width="48" height="48" rx="8" fill="white" opacity="0.07"/>
    <rect x="468" y="76" width="48" height="48" rx="8" fill="white" opacity="0.04"/>
    <rect x="524" y="76" width="48" height="48" rx="8" fill="white" opacity="0.06"/>
    <rect x="580" y="76" width="48" height="48" rx="8" fill="white" opacity="0.05"/>
    <rect x="636" y="76" width="48" height="48" rx="8" fill="white" opacity="0.03"/>
    <rect x="692" y="76" width="48" height="48" rx="8" fill="white" opacity="0.06"/>
    <rect x="748" y="76" width="48" height="48" rx="8" fill="white" opacity="0.04"/>

    <!-- Row 3 -->
    <rect x="20" y="132" width="48" height="48" rx="8" fill="white" opacity="0.06"/>
    <rect x="76" y="132" width="48" height="48" rx="8" fill="white" opacity="0.04"/>
    <rect x="132" y="132" width="48" height="48" rx="8" fill="white" opacity="0.05"/>
    <rect x="188" y="132" width="48" height="48" rx="8" fill="white" opacity="0.03"/>
    <rect x="244" y="132" width="48" height="48" rx="8" fill="white" opacity="0.07"/>
    <rect x="524" y="132" width="48" height="48" rx="8" fill="white" opacity="0.07"/>
    <rect x="580" y="132" width="48" height="48" rx="8" fill="white" opacity="0.03"/>
    <rect x="636" y="132" width="48" height="48" rx="8" fill="white" opacity="0.05"/>
    <rect x="692" y="132" width="48" height="48" rx="8" fill="white" opacity="0.04"/>
    <rect x="748" y="132" width="48" height="48" rx="8" fill="white" opacity="0.06"/>

    <!-- Row 4 -->
    <rect x="20" y="188" width="48" height="48" rx="8" fill="white" opacity="0.03"/>
    <rect x="76" y="188" width="48" height="48" rx="8" fill="white" opacity="0.05"/>
    <rect x="132" y="188" width="48" height="48" rx="8" fill="white" opacity="0.06"/>
    <rect x="188" y="188" width="48" height="48" rx="8" fill="white" opacity="0.04"/>
    <rect x="580" y="188" width="48" height="48" rx="8" fill="white" opacity="0.04"/>
    <rect x="636" y="188" width="48" height="48" rx="8" fill="white" opacity="0.06"/>
    <rect x="692" y="188" width="48" height="48" rx="8" fill="white" opacity="0.05"/>
    <rect x="748" y="188" width="48" height="48" rx="8" fill="white" opacity="0.03"/>

    <!-- Row 5 -->
    <rect x="20" y="244" width="48" height="48" rx="8" fill="white" opacity="0.07"/>
    <rect x="76" y="244" width="48" height="48" rx="8" fill="white" opacity="0.04"/>
    <rect x="132" y="244" width="48" height="48" rx="8" fill="white" opacity="0.03"/>
    <rect x="188" y="244" width="48" height="48" rx="8" fill="white" opacity="0.06"/>
    <rect x="580" y="244" width="48" height="48" rx="8" fill="white" opacity="0.06"/>
    <rect x="636" y="244" width="48" height="48" rx="8" fill="white" opacity="0.03"/>
    <rect x="692" y="244" width="48" height="48" rx="8" fill="white" opacity="0.04"/>
    <rect x="748" y="244" width="48" height="48" rx="8" fill="white" opacity="0.07"/>

    <!-- Row 6 -->
    <rect x="20" y="300" width="48" height="48" rx="8" fill="white" opacity="0.04"/>
    <rect x="76" y="300" width="48" height="48" rx="8" fill="white" opacity="0.06"/>
    <rect x="132" y="300" width="48" height="48" rx="8" fill="white" opacity="0.05"/>
    <rect x="188" y="300" width="48" height="48" rx="8" fill="white" opacity="0.03"/>
    <rect x="244" y="300" width="48" height="48" rx="8" fill="white" opacity="0.07"/>
    <rect x="300" y="300" width="48" height="48" rx="8" fill="white" opacity="0.04"/>
    <rect x="356" y="300" width="48" height="48" rx="8" fill="white" opacity="0.06"/>
    <rect x="412" y="300" width="48" height="48" rx="8" fill="white" opacity="0.05"/>
    <rect x="468" y="300" width="48" height="48" rx="8" fill="white" opacity="0.03"/>
    <rect x="524" y="300" width="48" height="48" rx="8" fill="white" opacity="0.07"/>
    <rect x="580" y="300" width="48" height="48" rx="8" fill="white" opacity="0.05"/>
    <rect x="636" y="300" width="48" height="48" rx="8" fill="white" opacity="0.06"/>
    <rect x="692" y="300" width="48" height="48" rx="8" fill="white" opacity="0.03"/>
    <rect x="748" y="300" width="48" height="48" rx="8" fill="white" opacity="0.04"/>
  </g>

  <!-- Open padlock with data escaping -->
  <g filter="url(#glow)" stroke="#ffffff" stroke-width="2.5" fill="none" stroke-linecap="round" stroke-linejoin="round" transform="translate(400, 200)">
    <rect x="-35" y="-5" width="70" height="60" rx="6"/>
    <path d="M-20 -5 L-20 -35 Q-20 -55 0 -55 Q20 -55 20 -35 L20 -20"/>
    <circle cx="0" cy="22" r="10"/>
    <line x1="0" y1="28" x2="0" y2="42"/>
  </g>

  <!-- Data particles floating up -->
  <g fill="#ffffff">
    <circle cx="375" cy="105" r="3" opacity="0.5"/>
    <circle cx="400" cy="85" r="4" opacity="0.6"/>
    <circle cx="425" cy="100" r="3" opacity="0.4"/>
    <circle cx="388" cy="120" r="2" opacity="0.3"/>
    <circle cx="412" cy="115" r="2" opacity="0.35"/>
  </g>
</svg>
