<svg xmlns="http://www.w3.org/2000/svg" viewBox="0 0 800 400">
  <defs>
    <linearGradient id="bgGrad" x1="0%" y1="0%" x2="100%" y2="100%">
      <stop offset="0%" style="stop-color:#141414"/>
      <stop offset="100%" style="stop-color:#0a0a0a"/>
    </linearGradient>
    <filter id="glow">
      <feGaussianBlur stdDeviation="2.5" result="coloredBlur"/>
      <feMerge>
        <feMergeNode in="coloredBlur"/>
        <feMergeNode in="SourceGraphic"/>
      </feMerge>
    </filter>
    <radialGradient id="moduleFade" cx="50%" cy="50%" r="60%">
      <stop offset="0%" stop-color="white"/>
      <stop offset="100%" stop-color="white" stop-opacity="0"/>
    </radialGradient>
    <mask id="fadeMask">
      <rect width="800" height="400" fill="url(#moduleFade)"/>
    </mask>
  </defs>

  <rect width="800" height="400" fill="url(#bgGrad)"/>

  <!-- Modular background grid -->
  <g mask="url(#fadeMask)">
    <rect x="200" y="20" width="48" height="48" rx="8" fill="white" opacity="0.04"/>
    <rect x="256" y="20" width="48" height="48" rx="8" fill="white" opacity="0.06"/>
    <rect x="312" y="20" width="48" height="48" rx="8" fill="white" opacity="0.03"/>
    <rect x="440" y="20" width="48" height="48" rx="8" fill="white" opacity="0.05"/>
    <rect x="496" y="20" width="48" height="48" rx="8" fill="white" opacity="0.04"/>

    <rect x="144" y="76" width="48" height="48" rx="8" fill="white" opacity="0.03"/>
    <rect x="200" y="76" width="48" height="48" rx="8" fill="white" opacity="0.07"/>
    <rect x="256" y="76" width="48" height="48" rx="8" fill="white" opacity="0.05"/>
    <rect x="312" y="76" width="48" height="48" rx="8" fill="white" opacity="0.08"/>
    <rect x="368" y="76" width="48" height="48" rx="8" fill="white" opacity="0.06"/>
    <rect x="424" y="76" width="48" height="48" rx="8" fill="white" opacity="0.07"/>
    <rect x="480" y="76" width="48" height="48" rx="8" fill="white" opacity="0.04"/>
    <rect x="536" y="76" width="48" height="48" rx="8" fill="white" opacity="0.03"/>

    <rect x="144" y="132" width="48" height="48" rx="8" fill="white" opacity="0.05"/>
    <rect x="200" y="132" width="48" height="48" rx="8" fill="white" opacity="0.04"/>
    <rect x="480" y="132" width="48" height="48" rx="8" fill="white" opacity="0.05"/>
    <rect x="536" y="132" width="48" height="48" rx="8" fill="white" opacity="0.06"/>

    <rect x="144" y="220" width="48" height="48" rx="8" fill="white" opacity="0.04"/>
    <rect x="200" y="220" width="48" height="48" rx="8" fill="white" opacity="0.06"/>
    <rect x="480" y="220" width="48" height="48" rx="8" fill="white" opacity="0.04"/>
    <rect x="536" y="220" width="48" height="48" rx="8" fill="white" opacity="0.05"/>

    <rect x="144" y="276" width="48" height="48" rx="8" fill="white" opacity="0.03"/>
    <rect x="200" y="276" width="48" height="48" rx="8" fill="white" opacity="0.05"/>
    <rect x="256" y="276" width="48" height="48" rx="8" fill="white" opacity="0.07"/>
    <rect x="312" y="276" width="48" height="48" rx="8" fill="white" opacity="0.05"/>
    <rect x="368" y="276" width="48" height="48" rx="8" fill="white" opacity="0.06"/>
    <rect x="424" y="276" width="48" height="48" rx="8" fill="white" opacity="0.04"/>
    <rect x="480" y="276" width="48" height="48" rx="8" fill="white" opacity="0.06"/>
    <rect x="536" y="276" width="48" height="48" rx="8" fill="white" opacity="0.03"/>

    <rect x="200" y="332" width="48" height="48" rx="8" fill="white" opacity="0.04"/>
    <rect x="256" y="332" width="48" height="48" rx="8" fill="white" opacity="0.05"/>
    <rect x="440" y="332" width="48" height="48" rx="8" fill="white" opacity="0.04"/>
    <rect x="496" y="332" width="48" height="48" rx="8" fill="white" opacity="0.06"/>
  </g>

  <!-- Open padlock with data escaping -->
  <g filter="url(#glow)" stroke="#ffffff" stroke-width="2.5" fill="none" stroke-linecap="round" stroke-linejoin="round" transform="translate(400, 200)">
    <!-- Padlock body -->
    <rect x="-35" y="-5" width="70" height="60" rx="6"/>

    <!-- Open shackle -->
    <path d="M-20 -5 L-20 -35 Q-20 -55 0 -55 Q20 -55 20 -35 L20 -20"/>

    <!-- Keyhole -->
    <circle cx="0" cy="22" r="10"/>
    <line x1="0" y1="28" x2="0" y2="42"/>
  </g>

  <!-- Data particles floating up -->
  <g fill="#ffffff">
    <circle cx="375" cy="105" r="3" opacity="0.5"/>
    <circle cx="400" cy="85" r="4" opacity="0.6"/>
    <circle cx="425" cy="100" r="3" opacity="0.4"/>
    <circle cx="388" cy="120" r="2" opacity="0.3"/>
    <circle cx="412" cy="115" r="2" opacity="0.35"/>
  </g>
</svg>
