<svg xmlns="http://www.w3.org/2000/svg" viewBox="0 0 400 400">
  <defs>
    <linearGradient id="bgGrad" x1="0%" y1="0%" x2="100%" y2="100%">
      <stop offset="0%" style="stop-color:#1a1a1a"/>
      <stop offset="100%" style="stop-color:#0d0d0d"/>
    </linearGradient>
    <filter id="glow">
      <feGaussianBlur stdDeviation="2.5" result="coloredBlur"/>
      <feMerge>
        <feMergeNode in="coloredBlur"/>
        <feMergeNode in="SourceGraphic"/>
      </feMerge>
    </filter>
  </defs>

  <rect width="400" height="400" fill="url(#bgGrad)"/>

  <!-- Balanced scales -->
  <g filter="url(#glow)" stroke="#ffffff" stroke-width="2" fill="none" stroke-linecap="round" stroke-linejoin="round">
    <!-- Central post -->
    <line x1="200" y1="100" x2="200" y2="300"/>

    <!-- Balance beam -->
    <line x1="100" y1="160" x2="300" y2="160"/>

    <!-- Fulcrum triangle -->
    <polygon points="200,160 185,130 215,130" fill="none"/>

    <!-- Left pan (£0 / free) -->
    <path d="M80 180 Q80 220 120 220 Q160 220 160 180" />
    <line x1="100" y1="160" x2="80" y2="180"/>
    <line x1="100" y1="160" x2="160" y2="180"/>

    <!-- Right pan (data cost) -->
    <path d="M240 180 Q240 220 280 220 Q320 220 320 180" />
    <line x1="300" y1="160" x2="240" y2="180"/>
    <line x1="300" y1="160" x2="320" y2="180"/>
  </g>

  <!-- £0 on left side -->
  <g filter="url(#glow)" fill="#ffffff" opacity="0.6">
    <text x="120" y="208" font-family="system-ui, sans-serif" font-size="18" text-anchor="middle">£0</text>
  </g>

  <!-- Data symbols on right side -->
  <g stroke="#ffffff" stroke-width="1.5" fill="none" opacity="0.6">
    <circle cx="265" cy="200" r="6"/>
    <circle cx="280" cy="200" r="6"/>
    <circle cx="295" cy="200" r="6"/>
  </g>

  <!-- Base -->
  <g filter="url(#glow)" stroke="#ffffff" stroke-width="2" fill="none" stroke-linecap="round">
    <line x1="160" y1="300" x2="240" y2="300"/>
  </g>
</svg>
