<svg xmlns="http://www.w3.org/2000/svg" viewBox="0 0 800 400">
  <defs>
    <linearGradient id="bgGrad" x1="0%" y1="0%" x2="100%" y2="100%">
      <stop offset="0%" style="stop-color:#141414"/>
      <stop offset="100%" style="stop-color:#0a0a0a"/>
    </linearGradient>
    <filter id="glow">
      <feGaussianBlur stdDeviation="2.5" result="coloredBlur"/>
      <feMerge>
        <feMergeNode in="coloredBlur"/>
        <feMergeNode in="SourceGraphic"/>
      </feMerge>
    </filter>
    <radialGradient id="moduleFade" cx="50%" cy="50%" r="60%">
      <stop offset="0%" stop-color="white"/>
      <stop offset="100%" stop-color="white" stop-opacity="0"/>
    </radialGradient>
    <mask id="fadeMask">
      <rect width="800" height="400" fill="url(#moduleFade)"/>
    </mask>
  </defs>

  <rect width="800" height="400" fill="url(#bgGrad)"/>

  <!-- Modular background grid -->
  <g mask="url(#fadeMask)">
    <rect x="200" y="20" width="48" height="48" rx="8" fill="white" opacity="0.04"/>
    <rect x="256" y="20" width="48" height="48" rx="8" fill="white" opacity="0.06"/>
    <rect x="312" y="20" width="48" height="48" rx="8" fill="white" opacity="0.03"/>
    <rect x="440" y="20" width="48" height="48" rx="8" fill="white" opacity="0.05"/>
    <rect x="496" y="20" width="48" height="48" rx="8" fill="white" opacity="0.04"/>

    <rect x="144" y="76" width="48" height="48" rx="8" fill="white" opacity="0.03"/>
    <rect x="200" y="76" width="48" height="48" rx="8" fill="white" opacity="0.07"/>
    <rect x="256" y="76" width="48" height="48" rx="8" fill="white" opacity="0.05"/>
    <rect x="312" y="76" width="48" height="48" rx="8" fill="white" opacity="0.08"/>
    <rect x="368" y="76" width="48" height="48" rx="8" fill="white" opacity="0.06"/>
    <rect x="424" y="76" width="48" height="48" rx="8" fill="white" opacity="0.07"/>
    <rect x="480" y="76" width="48" height="48" rx="8" fill="white" opacity="0.04"/>
    <rect x="536" y="76" width="48" height="48" rx="8" fill="white" opacity="0.03"/>

    <rect x="144" y="132" width="48" height="48" rx="8" fill="white" opacity="0.05"/>
    <rect x="200" y="132" width="48" height="48" rx="8" fill="white" opacity="0.04"/>
    <rect x="480" y="132" width="48" height="48" rx="8" fill="white" opacity="0.05"/>
    <rect x="536" y="132" width="48" height="48" rx="8" fill="white" opacity="0.06"/>

    <rect x="144" y="220" width="48" height="48" rx="8" fill="white" opacity="0.04"/>
    <rect x="200" y="220" width="48" height="48" rx="8" fill="white" opacity="0.06"/>
    <rect x="480" y="220" width="48" height="48" rx="8" fill="white" opacity="0.04"/>
    <rect x="536" y="220" width="48" height="48" rx="8" fill="white" opacity="0.05"/>

    <rect x="144" y="276" width="48" height="48" rx="8" fill="white" opacity="0.03"/>
    <rect x="200" y="276" width="48" height="48" rx="8" fill="white" opacity="0.05"/>
    <rect x="256" y="276" width="48" height="48" rx="8" fill="white" opacity="0.07"/>
    <rect x="312" y="276" width="48" height="48" rx="8" fill="white" opacity="0.05"/>
    <rect x="368" y="276" width="48" height="48" rx="8" fill="white" opacity="0.06"/>
    <rect x="424" y="276" width="48" height="48" rx="8" fill="white" opacity="0.04"/>
    <rect x="480" y="276" width="48" height="48" rx="8" fill="white" opacity="0.06"/>
    <rect x="536" y="276" width="48" height="48" rx="8" fill="white" opacity="0.03"/>

    <rect x="200" y="332" width="48" height="48" rx="8" fill="white" opacity="0.04"/>
    <rect x="256" y="332" width="48" height="48" rx="8" fill="white" opacity="0.05"/>
    <rect x="440" y="332" width="48" height="48" rx="8" fill="white" opacity="0.04"/>
    <rect x="496" y="332" width="48" height="48" rx="8" fill="white" opacity="0.06"/>
  </g>

  <!-- Circular refresh arrows -->
  <g filter="url(#glow)" stroke="#ffffff" stroke-width="2.5" fill="none" stroke-linecap="round" stroke-linejoin="round" transform="translate(400, 200)">
    <path d="M0 -60 A60 60 0 1 1 -52 30"/>
    <path d="M0 60 A60 60 0 1 1 52 -30"/>
    <polyline points="-60,-12 -52,30 -10,22"/>
    <polyline points="60,12 52,-30 10,-22"/>
  </g>

  <!-- Clock in centre -->
  <g filter="url(#glow)" stroke="#ffffff" stroke-width="2" fill="none" stroke-linecap="round" transform="translate(400, 200)">
    <circle cx="0" cy="0" r="22"/>
    <line x1="0" y1="0" x2="0" y2="-12"/>
    <line x1="0" y1="0" x2="8" y2="6"/>
  </g>
</svg>
