<svg xmlns="http://www.w3.org/2000/svg" viewBox="0 0 784 344">
  <defs>
    <linearGradient id="bgGrad" x1="0%" y1="0%" x2="100%" y2="100%">
      <stop offset="0%" style="stop-color:#141414"/>
      <stop offset="100%" style="stop-color:#0a0a0a"/>
    </linearGradient>
    <filter id="glow">
      <feGaussianBlur stdDeviation="2.5" result="coloredBlur"/>
      <feMerge>
        <feMergeNode in="coloredBlur"/>
        <feMergeNode in="SourceGraphic"/>
      </feMerge>
    </filter>
  </defs>

  <rect width="784" height="344" fill="url(#bgGrad)"/>

  <!-- Modular background grid: 14 columns x 6 rows, 48px squares, 8px gap, 8px padding -->
  <g>
    <!-- Row 1 -->
    <rect x="8" y="8" width="48" height="48" rx="8" fill="white" opacity="0.04"/>
    <rect x="64" y="8" width="48" height="48" rx="8" fill="white" opacity="0.06"/>
    <rect x="120" y="8" width="48" height="48" rx="8" fill="white" opacity="0.03"/>
    <rect x="176" y="8" width="48" height="48" rx="8" fill="white" opacity="0.05"/>
    <rect x="232" y="8" width="48" height="48" rx="8" fill="white" opacity="0.07"/>
    <rect x="288" y="8" width="48" height="48" rx="8" fill="white" opacity="0.04"/>
    <rect x="344" y="8" width="48" height="48" rx="8" fill="white" opacity="0.06"/>
    <rect x="400" y="8" width="48" height="48" rx="8" fill="white" opacity="0.03"/>
    <rect x="456" y="8" width="48" height="48" rx="8" fill="white" opacity="0.05"/>
    <rect x="512" y="8" width="48" height="48" rx="8" fill="white" opacity="0.07"/>
    <rect x="568" y="8" width="48" height="48" rx="8" fill="white" opacity="0.04"/>
    <rect x="624" y="8" width="48" height="48" rx="8" fill="white" opacity="0.06"/>
    <rect x="680" y="8" width="48" height="48" rx="8" fill="white" opacity="0.05"/>
    <rect x="736" y="8" width="48" height="48" rx="8" fill="white" opacity="0.03"/>

    <!-- Row 2 -->
    <rect x="8" y="64" width="48" height="48" rx="8" fill="white" opacity="0.05"/>
    <rect x="64" y="64" width="48" height="48" rx="8" fill="white" opacity="0.03"/>
    <rect x="120" y="64" width="48" height="48" rx="8" fill="white" opacity="0.07"/>
    <rect x="176" y="64" width="48" height="48" rx="8" fill="white" opacity="0.04"/>
    <rect x="232" y="64" width="48" height="48" rx="8" fill="white" opacity="0.06"/>
    <rect x="288" y="64" width="48" height="48" rx="8" fill="white" opacity="0.05"/>
    <rect x="344" y="64" width="48" height="48" rx="8" fill="white" opacity="0.03"/>
    <rect x="400" y="64" width="48" height="48" rx="8" fill="white" opacity="0.07"/>
    <rect x="456" y="64" width="48" height="48" rx="8" fill="white" opacity="0.04"/>
    <rect x="512" y="64" width="48" height="48" rx="8" fill="white" opacity="0.06"/>
    <rect x="568" y="64" width="48" height="48" rx="8" fill="white" opacity="0.05"/>
    <rect x="624" y="64" width="48" height="48" rx="8" fill="white" opacity="0.03"/>
    <rect x="680" y="64" width="48" height="48" rx="8" fill="white" opacity="0.06"/>
    <rect x="736" y="64" width="48" height="48" rx="8" fill="white" opacity="0.04"/>

    <!-- Row 3 -->
    <rect x="8" y="120" width="48" height="48" rx="8" fill="white" opacity="0.06"/>
    <rect x="64" y="120" width="48" height="48" rx="8" fill="white" opacity="0.04"/>
    <rect x="120" y="120" width="48" height="48" rx="8" fill="white" opacity="0.05"/>
    <rect x="176" y="120" width="48" height="48" rx="8" fill="white" opacity="0.03"/>
    <rect x="232" y="120" width="48" height="48" rx="8" fill="white" opacity="0.07"/>
    <rect x="288" y="120" width="48" height="48" rx="8" fill="white" opacity="0.06"/>
    <rect x="344" y="120" width="48" height="48" rx="8" fill="white" opacity="0.04"/>
    <rect x="400" y="120" width="48" height="48" rx="8" fill="white" opacity="0.05"/>
    <rect x="456" y="120" width="48" height="48" rx="8" fill="white" opacity="0.03"/>
    <rect x="512" y="120" width="48" height="48" rx="8" fill="white" opacity="0.07"/>
    <rect x="568" y="120" width="48" height="48" rx="8" fill="white" opacity="0.03"/>
    <rect x="624" y="120" width="48" height="48" rx="8" fill="white" opacity="0.05"/>
    <rect x="680" y="120" width="48" height="48" rx="8" fill="white" opacity="0.04"/>
    <rect x="736" y="120" width="48" height="48" rx="8" fill="white" opacity="0.06"/>

    <!-- Row 4 -->
    <rect x="8" y="176" width="48" height="48" rx="8" fill="white" opacity="0.03"/>
    <rect x="64" y="176" width="48" height="48" rx="8" fill="white" opacity="0.05"/>
    <rect x="120" y="176" width="48" height="48" rx="8" fill="white" opacity="0.06"/>
    <rect x="176" y="176" width="48" height="48" rx="8" fill="white" opacity="0.04"/>
    <rect x="232" y="176" width="48" height="48" rx="8" fill="white" opacity="0.05"/>
    <rect x="288" y="176" width="48" height="48" rx="8" fill="white" opacity="0.03"/>
    <rect x="344" y="176" width="48" height="48" rx="8" fill="white" opacity="0.07"/>
    <rect x="400" y="176" width="48" height="48" rx="8" fill="white" opacity="0.06"/>
    <rect x="456" y="176" width="48" height="48" rx="8" fill="white" opacity="0.04"/>
    <rect x="512" y="176" width="48" height="48" rx="8" fill="white" opacity="0.05"/>
    <rect x="568" y="176" width="48" height="48" rx="8" fill="white" opacity="0.04"/>
    <rect x="624" y="176" width="48" height="48" rx="8" fill="white" opacity="0.06"/>
    <rect x="680" y="176" width="48" height="48" rx="8" fill="white" opacity="0.05"/>
    <rect x="736" y="176" width="48" height="48" rx="8" fill="white" opacity="0.03"/>

    <!-- Row 5 -->
    <rect x="8" y="232" width="48" height="48" rx="8" fill="white" opacity="0.07"/>
    <rect x="64" y="232" width="48" height="48" rx="8" fill="white" opacity="0.04"/>
    <rect x="120" y="232" width="48" height="48" rx="8" fill="white" opacity="0.03"/>
    <rect x="176" y="232" width="48" height="48" rx="8" fill="white" opacity="0.06"/>
    <rect x="232" y="232" width="48" height="48" rx="8" fill="white" opacity="0.04"/>
    <rect x="288" y="232" width="48" height="48" rx="8" fill="white" opacity="0.05"/>
    <rect x="344" y="232" width="48" height="48" rx="8" fill="white" opacity="0.06"/>
    <rect x="400" y="232" width="48" height="48" rx="8" fill="white" opacity="0.03"/>
    <rect x="456" y="232" width="48" height="48" rx="8" fill="white" opacity="0.07"/>
    <rect x="512" y="232" width="48" height="48" rx="8" fill="white" opacity="0.04"/>
    <rect x="568" y="232" width="48" height="48" rx="8" fill="white" opacity="0.06"/>
    <rect x="624" y="232" width="48" height="48" rx="8" fill="white" opacity="0.03"/>
    <rect x="680" y="232" width="48" height="48" rx="8" fill="white" opacity="0.04"/>
    <rect x="736" y="232" width="48" height="48" rx="8" fill="white" opacity="0.07"/>

    <!-- Row 6 -->
    <rect x="8" y="288" width="48" height="48" rx="8" fill="white" opacity="0.04"/>
    <rect x="64" y="288" width="48" height="48" rx="8" fill="white" opacity="0.06"/>
    <rect x="120" y="288" width="48" height="48" rx="8" fill="white" opacity="0.05"/>
    <rect x="176" y="288" width="48" height="48" rx="8" fill="white" opacity="0.03"/>
    <rect x="232" y="288" width="48" height="48" rx="8" fill="white" opacity="0.07"/>
    <rect x="288" y="288" width="48" height="48" rx="8" fill="white" opacity="0.04"/>
    <rect x="344" y="288" width="48" height="48" rx="8" fill="white" opacity="0.06"/>
    <rect x="400" y="288" width="48" height="48" rx="8" fill="white" opacity="0.05"/>
    <rect x="456" y="288" width="48" height="48" rx="8" fill="white" opacity="0.03"/>
    <rect x="512" y="288" width="48" height="48" rx="8" fill="white" opacity="0.07"/>
    <rect x="568" y="288" width="48" height="48" rx="8" fill="white" opacity="0.05"/>
    <rect x="624" y="288" width="48" height="48" rx="8" fill="white" opacity="0.06"/>
    <rect x="680" y="288" width="48" height="48" rx="8" fill="white" opacity="0.03"/>
    <rect x="736" y="288" width="48" height="48" rx="8" fill="white" opacity="0.04"/>
  </g>

  <!-- Network nodes -->
  <g filter="url(#glow)" stroke="#ffffff" stroke-width="2" fill="none" stroke-linecap="round" stroke-linejoin="round" transform="translate(392, 172)">
    <circle cx="0" cy="0" r="18"/>
    <circle cx="-70" cy="-45" r="10"/>
    <circle cx="70" cy="-45" r="10"/>
    <circle cx="-70" cy="45" r="10"/>
    <circle cx="70" cy="45" r="10"/>
    <circle cx="0" cy="-80" r="10"/>
    <circle cx="0" cy="80" r="10"/>
    <line x1="-14" y1="-10" x2="-60" y2="-38"/>
    <line x1="14" y1="-10" x2="60" y2="-38"/>
    <line x1="-14" y1="10" x2="-60" y2="38"/>
    <line x1="14" y1="10" x2="60" y2="38"/>
    <line x1="0" y1="-18" x2="0" y2="-70"/>
    <line x1="0" y1="18" x2="0" y2="70"/>
  </g>
</svg>
