<svg viewBox="280 1040 300 260" fill="none" xmlns="http://www.w3.org/2000/svg">
  <defs>
    <filter id="glow">
      <feGaussianBlur stdDeviation="3" result="blur"/>
      <feMerge>
        <feMergeNode in="blur"/>
        <feMergeNode in="blur"/>
        <feMergeNode in="SourceGraphic"/>
      </feMerge>
    </filter>
  </defs>
  <!-- Somerset -->
  <path opacity="0.15" d="m 487.3317,1060.5179 0.67,-0.02 0,0 2.04,1.97 1.44,-0.61 0.67,1.3 1.08,0.72 0.52,1.79 -0.9,0.84 0.66,0.31 -0.48,1.43 0.53,0.72 -0.42,0.91 0.31,0.49 0.68,-0.23 1.7,0.71 1.37,-0.21 0.62,-1.24 1.1,0.43 1.28,-1.83 -0.2,-0.92 1.14,1.02 1.04,-0.44 -0.07,1.09 0.74,-0.35 0.73,0.57 7.94,-2.38 1.15,0.26 0.78,1.46 1.13,-0.64 0,0 0.62,0.54 0,0 0.39,0.76 -0.77,1.02 0,0 0.57,0.85 -0.94,0.24 0.3,2.55 -3.29,2.42 1.27,-0.22 0.92,0.79 0.85,-0.25 -0.26,1.02 1.71,0.95 0.07,0.87 -0.82,0.48 0.52,0.55 -0.21,1.17 0.93,-0.39 0.74,0.64 0.51,3.61 -3.33,7.85 -2.1,2.97 -0.03,0.78 -0.86,0.45 0.08,0.87 -1.26,0.58 0.23,1.98 2.2,1.93 0,0 -1.52,1.09 1.26,2.74 -1.93,1.61 -1.3,2.02 0.28,1.41 1.39,-0.01 0.65,1.2 -4.43,1.82 -0.82,-1.08 -1.21,0.35 0.27,0.82 -0.84,1.03 -2.15,-2.33 -0.75,-2.1 -1.51,0.19 -0.55,-0.74 -0.77,-0.02 0.13,1.44 -0.68,0.55 -0.39,0.18 -0.77,-0.89 -0.72,0.98 -0.62,-0.44 -0.47,0.5 0.53,1.41 -0.21,1.36 -1.12,0.8 0.76,1.38 -0.68,0.35 -0.58,1.53 0.91,1.62 -0.41,0.99 -2.8,-0.54 -1.15,0.96 -2.23,0.63 -0.01,0.72 -2.7,-0.3 -0.25,0.6 -1.24,0.08 -0.69,0.72 -1.22,-1.05 -1.1,1.47 -0.87,0.13 -0.15,-0.42 -2.13,0.51 -0.45,-0.41 -2.76,0.96 -1.52,1.96 0,0 -0.87,-1.25 -0.34,-2.18 -1.57,0.47 -0.81,-0.62 -1.6,0.6 0.14,-1.27 -1.27,-1.06 0.16,-3.31 0,0 -0.01,-0.05 0,0 -4.65,0.66 -1.27,0.99 -2.6,-1.86 0.96,-1.5 0.38,-2.21 -5.56,0.58 -2.37,-1.3 -2.55,-2.76 -2.87,0.36 -0.04,-3.6 0,0 -0.2,-0.36 0,0 -1.74,-0.09 -0.95,-1.19 -2.19,0.62 -1.46,-0.86 -2.31,0.79 0.07,1.11 -1.01,1.11 -4.71,-0.44 0,0 -0.28,-0.56 0,0 1.24,-4.14 -1.28,-0.15 0,0 -0.27,-0.31 0,0 -1.86,0.13 -0.09,-0.55 -2.65,-1.65 -1.73,-0.02 -2.98,-2.49 -2.32,-0.99 -1.88,-2.44 -0.31,-3.69 3.32,0.5 3.92,-0.86 -0.51,-1.06 0.36,-1.1 -0.33,-1.31 0.75,-1.85 0,0 5.28,0.84 0.88,0.83 2.01,-0.71 0.69,-0.82 2.2,-0.11 2.91,0.76 1.92,1.41 0.85,-0.44 3.18,2.92 3.34,0.28 4.54,0.03 5.04,-2.08 6.27,-1.17 2.06,-1.87 1.86,-1.18 -0.21,-0.5 -1.38,0.07 -1.25,-0.7 0.08,-0.5 2.19,-2.65 0.94,-3.37 0.51,-0.56 2.39,-4.73 0,-1.25 4.35,-1.23 1.76,-2.88 5.34,-5.68 1.81,-0.91 2.54,0.23 0.27,-0.81 z" stroke="#fff" stroke-width="0.5" fill="none"/>
  <!-- Dorset -->
  <path opacity="0.15" d="m 535.8117,1111.6179 0.09,1.15 0.77,0.41 -0.12,2.06 0.79,0.91 2.13,0.69 1.71,1.96 -0.33,1.04 0.45,3.4 2.31,3.28 0.55,5.04 0.62,1.35 1.95,1.09 2.16,-1.47 0.63,1.61 -0.33,1.57 3.92,-0.44 -0.65,1.48 0,0 -2.35,0.5 -1.2,2.07 -5.09,-0.93 -3.43,0.63 -1.96,1.08 -2.19,2.27 0.58,0.65 -0.71,1.7 0.17,0.99 0.57,0.52 1.14,-0.17 -2.13,2.51 0.07,0.91 0.77,0.08 -0.5,1.26 -4.75,0.57 -1.8,1.23 -0.61,-1.69 -2.63,-0.23 -1.21,-0.66 -0.53,-0.96 -0.85,0.47 -0.66,-0.75 -1.85,0.04 -0.68,-0.8 -2.7,0.67 -5.17,-0.83 -0.97,-0.73 -5.46,-0.32 -1.61,2.03 0.62,0.49 -0.48,0.8 1.05,0.53 -1.12,-0.5 -1.26,1.73 0.59,1.21 2.43,0.22 -0.4,0.3 0.82,1.71 -2.61,3.56 0.39,-4.8 -5.03,-4.98 -6.72,-5.13 -9.82,-5.34 -7.29,-1.54 -2.37,1.51 0,0 -0.26,-1.23 0.95,-2.25 -1.23,-1.08 0.32,-0.65 1.19,-1.12 2.14,-0.42 0.7,-0.87 -0.37,-0.97 -4.32,-1.11 0.44,-0.54 0,0 1.52,-1.96 2.76,-0.96 0.45,0.41 2.13,-0.51 0.15,0.43 0.87,-0.14 1.1,-1.46 1.22,1.05 0.69,-0.72 1.24,-0.08 0.25,-0.6 2.7,0.3 0.01,-0.72 2.23,-0.63 1.15,-0.96 2.8,0.55 0.41,-0.99 -0.91,-1.62 0.58,-1.53 0.68,-0.35 -0.76,-1.38 1.13,-0.79 0.2,-1.36 -0.53,-1.41 0.47,-0.5 0.62,0.45 0.72,-0.98 0.77,0.9 0.39,-0.19 0.67,-0.55 -0.12,-1.44 0.77,0.02 0.55,0.74 1.51,-0.19 0.76,2.1 2.15,2.33 0.83,-1.03 -0.27,-0.81 1.21,-0.35 0.82,1.07 4.43,-1.82 -0.65,-1.2 -1.39,0.01 -0.28,-1.41 1.3,-2.01 1.93,-1.62 -1.25,-2.74 1.51,-1.08 0,0 2.18,0.26 1.43,0.83 1.65,-0.25 3.09,3.34 0.29,1.92 0.76,0.57 0.25,1.17 1.53,1.47 1.79,0.81 -0.06,1.66 1.19,1.65 2.1,-0.62 0.63,-1.24 1.37,-0.85 2.67,-0.36 0.56,-0.9 1.25,-0.72 z" stroke="#fff" stroke-width="0.5" fill="none"/>
  <!-- Devon -->
  <path opacity="0.2" d="m 420.8217,1085.9479 1.11,0.87 3.02,0.43 0,0 -0.75,1.85 0.33,1.31 -0.36,1.11 0.51,1.06 -3.92,0.86 -3.32,-0.5 0.31,3.69 1.88,2.44 2.32,0.99 2.98,2.49 1.73,0.02 2.65,1.65 0.1,0.55 1.86,-0.13 0,0 0.27,0.31 0,0 1.28,0.15 -1.24,4.14 0,0 0.28,0.56 0,0 4.71,0.44 1.01,-1.11 -0.07,-1.11 2.31,-0.79 1.46,0.86 2.19,-0.62 0.95,1.19 1.74,0.09 0,0 0.2,0.36 0,0 0.05,3.6 2.87,-0.36 2.55,2.76 2.37,1.3 5.56,-0.58 -0.38,2.21 -0.96,1.5 2.6,1.86 1.27,-0.99 4.65,-0.66 0,0 0.01,0.05 0,0 -0.16,3.31 1.27,1.06 -0.14,1.27 1.6,-0.6 0.81,0.62 1.57,-0.47 0.34,2.18 0.87,1.25 0,0 -0.44,0.54 4.33,1.11 0.37,0.98 -0.7,0.87 -2.15,0.42 -1.18,1.12 -0.32,0.65 1.22,1.08 -0.95,2.26 0.27,1.23 0,0 -4.35,1.94 -4,-0.35 -1,1.66 -5.96,0.08 -4.01,1.07 -1.61,1.52 -1.59,3.04 -0.76,-0.17 -1.84,0.81 -0.76,0.58 0.01,0.85 -1.61,0.14 -2.84,-1.69 -0.37,0.84 0.1,-1.33 0.44,-0.07 -0.63,-0.31 0.49,-0.36 -0.44,0.09 0.38,-0.55 -0.32,0.12 -0.07,-0.89 -0.13,1.35 -0.45,-0.6 0.29,-1.23 -0.38,-0.63 0.21,0.82 -0.19,-0.38 -0.3,1.11 0.44,2.53 0.53,0.6 0.71,-0.26 0.08,0.49 -2.72,3.12 -0.1,1.41 -1.59,1.81 -0.95,2.75 0.83,0 1.76,5.21 0.69,6.38 -3.19,1.98 -0.82,2.06 0.16,1.13 -1.57,1.08 -1.93,-1.21 -0.29,-2.69 -1.03,-0.69 0.88,0.88 -0.23,1.27 1.31,2.45 -0.54,0.93 -2.48,0.74 -1.88,2.74 -1.08,5.16 1.15,1.66 -0.95,0.35 -1.64,-0.38 -1.54,1.56 -1.09,0.38 -0.89,-1.29 -2.26,-0.9 0.7,-1.22 1.23,-0.45 -0.8,0.2 -0.1,-1.13 0.52,-0.54 -0.54,0.38 0.35,-0.25 -0.46,0.19 -0.43,-0.83 0.49,2.06 -0.45,-0.06 -1.04,1.4 0.11,1.08 -0.55,0.59 -2.12,-0.75 -2.84,-2.12 -0.17,-0.37 0.66,-0.1 0.04,-1.81 -0.69,-0.17 -1.02,-1.59 -0.9,0.23 0.19,-0.87 -0.82,-0.72 -2.06,-0.18 -0.23,-1.14 -1,0.39 -1.79,-0.38 -3,1.5 -2.33,-1.06 0.23,-0.65 -0.71,-0.82 -1.38,0.49 -1.03,-0.52 -0.3,-3.92 -1.05,-0.6 -1.26,0.49 -0.13,-0.74 -1.2,-0.07 -0.29,-2.1 -0.98,-0.94 0.13,-1.22 0,0 0.37,-1.86 -0.85,-3.17 -0.6,-0.63 -0.55,1.2 -0.56,-0.4 1.15,-1.42 -0.03,-2.36 1.21,0.59 1.31,-1.04 -0.34,-0.55 -1.07,0.51 -0.38,-3.01 -1.42,0.28 -1.12,-1.29 -1.37,0.76 0.73,-0.93 -1.27,-2.32 0.5,-1.32 -0.91,-0.21 0.03,0.95 -0.77,-0.88 -0.65,0.49 0.5,-5.38 -1.89,-0.67 -1.16,-4.84 -1.14,-0.88 0.33,-2.08 -1.47,-2.86 0.26,-0.85 -0.43,-0.13 0.46,-1.18 -0.75,-0.76 -0.67,0.09 -0.73,0.2 0.33,1.18 -0.83,-0.18 -1.83,-2.11 -1.37,0.07 -1.28,-0.79 2.98,-1.63 0.78,-5.58 0.8,-0.07 -2.61,-4.67 0.31,-1.46 -1,-0.32 0,0 0,0 0,0 -4.77,0.21 0,0 -0.16,-1.22 0.49,-0.35 -0.19,-0.79 1.05,-3.31 -0.37,-2.17 0.6,-1.51 3.48,0.06 2.73,0.74 2.34,1.96 3,0.53 2.11,-0.6 2.75,-4.02 1.45,-0.52 0.54,-3.26 2.32,1.54 -0.6,-1.16 -2.02,-1.62 0.57,-3.05 -1.03,-0.57 0.1,-1.09 -1.12,-0.94 2.14,-0.23 0.47,-0.7 0.26,-2.94 -1.06,-0.63 1.35,-0.27 0.54,-0.98 1.84,0.1 2.89,-1.28 1.95,0.01 0.51,-0.66 2.96,1.08 0.96,-0.88 4.33,-0.3 1.97,-1.24 2.07,0.76 2.78,-1.07 2.5,0.31 1.47,-1.55 z" stroke="#fff" stroke-width="0.5" fill="none"/>
  <!-- Cornwall (highlighted with glow) -->
  <path filter="url(#glow)" d="m 372.7717,1117.6779 4.77,-0.21 1,0.32 -0.31,1.46 2.61,4.67 -0.8,0.07 -0.78,5.58 -2.98,1.63 1.28,0.79 1.37,-0.07 1.83,2.11 0.83,0.18 -0.33,-1.18 0.73,-0.2 0.67,-0.09 0.75,0.77 -0.46,1.18 0.43,0.13 -0.26,0.85 1.47,2.86 -0.33,2.08 1.15,0.88 1.16,4.84 1.9,0.67 -0.5,5.38 0.66,-0.49 0.77,0.88 -0.03,-0.95 0.91,0.21 -0.5,1.32 1.27,2.32 -0.73,0.93 1.37,-0.76 1.12,1.29 1.42,-0.28 0.38,3.01 1.07,-0.51 0.35,0.55 -1.31,1.04 -1.21,-0.59 0.03,2.36 -1.15,1.42 0.56,0.4 0.55,-1.2 0.6,0.63 0.85,3.17 -0.37,1.86 0,0 -0.51,1.11 -0.35,0.5 0.97,0.59 0.22,1.96 0.72,1.06 0.76,-0.33 0.61,1.14 -2.23,1.61 0.8,1.52 -1.41,-0.08 -0.77,0.7 -0.35,-0.75 0.38,-0.73 -0.61,-0.75 -3.13,-2.02 -2.2,-0.69 -7.1,0.05 -1.36,0.92 0.13,0.91 -1.46,0.38 -0.13,0.65 -1.48,-0.48 -0.32,0.64 -2.16,0.62 -2.63,-0.81 -1.23,0.85 -0.52,-0.5 -1.67,0.41 -0.33,-0.55 -0.83,0.6 -0.93,0.12 -0.38,0.92 -0.81,-0.59 0.19,-1.83 -1.17,-0.56 -3.51,1.25 -0.59,1.15 0.87,2.08 -0.67,-0.2 -0.67,0.6 -0.8,2.4 0.16,0.76 1.17,0.53 -1.23,1.1 0.27,0.73 -1.09,0.77 -0.03,1.05 -1.26,-1.12 -2.78,-0.39 -2.53,2.19 -1,1.6 -0.88,-0.97 -1.45,0.37 -1.08,1.76 0.1,1.93 -0.71,0.67 0.08,0.61 -1.78,1.22 -0.54,-0.96 0.81,-0.73 -1.42,-0.05 0.64,-2.62 -0.51,0.14 -0.6,-2.13 0.66,-0.56 -0.16,-0.09 -1.11,0.49 -0.99,1.35 0.3,1.3 0.82,0.36 -0.16,0.58 -0.69,0.8 -1.3,-0.6 0.81,1.42 0.97,-0.34 0.48,1.15 -0.83,-0.37 -1.35,0.74 0.21,0.58 -1.17,0.85 0.07,1.06 0.61,0.49 -0.63,0.7 -2.68,0.36 -0.45,-0.71 -0.35,0.87 -1.06,0.13 -0.58,0.49 3.56,-0.55 1.47,0.66 -0.74,0.3 1.86,0.05 -0.3,1.67 0.72,0.15 0.78,1.47 -0.63,0.42 -0.12,1.39 -1.75,0.7 0.31,1.15 -0.68,1.18 -1.38,-0.56 -2.72,0.6 -1.19,2.2 0,1.69 -0.73,-0.04 -0.78,0.78 -0.67,-1.51 -1.74,-0.55 0.16,-0.87 -1.46,-1.79 0.6,-1.01 -0.28,-1.89 -1.13,-0.77 0.06,-1.4 -2.28,-2.79 -0.31,0.27 -1.58,-1.05 -1.05,0.32 -1.85,-1.34 -1.11,-0.08 -1.19,0.65 -0.63,-1.31 -1.06,0.11 0.28,-0.42 -0.75,-0.9 -1.02,0.7 -0.26,-1.12 -2.82,0.36 -0.04,0.91 -1,0.51 -0.22,0.34 1.03,1.66 -0.62,1.75 -2.2,1.82 -2.63,0.06 -1.07,1.08 -0.55,-0.38 -0.55,0.63 -1.61,0.26 -0.83,-0.93 -0.08,-0.95 -0.75,-0.08 -0.57,-0.79 0.36,-1.41 1.15,-1.1 -1.23,-3.81 2.35,-3.78 2.79,-0.21 1.76,-2.43 0.6,0.37 3.23,-2.65 3.85,-0.29 0.62,1.84 1.98,-0.03 0.08,0.45 2.03,-2.19 0.5,-2.16 1.11,-0.32 0.6,0.75 2.46,-0.67 1.62,-1.81 3.28,-2.06 1.07,-2.32 -0.07,-1.17 2.16,-0.29 1.28,-1.3 -0.07,-0.55 1.22,-0.47 0.78,-3.08 -0.52,-1.22 0.73,-0.64 -0.05,-1.01 2.54,-0.79 0.4,-1.22 1.45,0.74 1.85,-2.25 0.82,-4.7 -0.71,-0.89 1.09,-1.23 0.24,-1.63 -0.66,-2.22 0.76,-0.22 0.49,0.63 2.02,0.22 0.76,-1.45 1.73,-1.13 -0.17,0.92 0.79,0.15 0.14,-0.73 0.69,-1.25 -0.87,-0.85 0.68,-0.71 1.07,0.91 1.25,0.18 1.19,-0.68 0.58,-0.3 0.62,-0.57 1.58,0.48 2.17,-0.85 1.92,-4.84 -0.42,-0.46 0.16,-1.34 1.26,-0.67 0.91,0.29 0.24,-1.04 1.28,-0.17 0.45,-0.85 1.07,-0.23 0.04,-0.88 1.5,-1.02 0.17,-2.39 0.84,-0.6 1.26,-0.64 0.37,-0.94 2.38,-1.02 0.79,-1.1 0.34,-8.16 -0.78,-3.79 0.86,-2.25 0.38,-0.35 z" stroke="#52b788" stroke-width="1.5" fill="rgba(82,183,136,0.08)"/>
</svg>
